<svg width="32" height="32" viewBox="0 0 32 32" fill="none" xmlns="http://www.w3.org/2000/svg">
<path d="M32 6.1001H30.47V25.9001H32V6.1001Z" fill="#000001"/>
<path d="M30.47 25.9001H28.95V27.4301H30.47V25.9001Z" fill="#000001"/>
<path d="M30.47 4.57007H28.95V6.10007H30.47V4.57007Z" fill="#000001"/>
<path d="M28.95 7.62012H27.43V10.6701H28.95V7.62012Z" fill="#000001"/>
<path d="M28.95 27.4299H3.05V28.9499H28.95V27.4299Z" fill="#000001"/>
<path d="M27.43 22.8601H25.9V24.3801H27.43V22.8601Z" fill="#000001"/>
<path d="M27.43 10.6702H25.9V12.1902H27.43V10.6702Z" fill="#000001"/>
<path d="M25.9 21.3301H24.38V22.8601H25.9V21.3301Z" fill="#000001"/>
<path d="M25.9 12.1899H24.38V13.7099H25.9V12.1899Z" fill="#000001"/>
<path d="M24.38 19.8101H22.85V21.3301H24.38V19.8101Z" fill="#000001"/>
<path d="M24.38 13.71H22.85V15.24H24.38V13.71Z" fill="#000001"/>
<path d="M22.85 18.29H21.33V19.81H22.85V18.29Z" fill="#000001"/>
<path d="M22.85 15.24H21.33V16.76H22.85V15.24Z" fill="#000001"/>
<path d="M21.33 16.76H18.28V18.29H21.33V16.76Z" fill="#000001"/>
<path d="M18.28 18.29H13.71V19.81H18.28V18.29Z" fill="#000001"/>
<path d="M13.71 16.76H10.66V18.29H13.71V16.76Z" fill="#000001"/>
<path d="M10.66 18.29H9.14V19.81H10.66V18.29Z" fill="#000001"/>
<path d="M10.66 15.24H9.14V16.76H10.66V15.24Z" fill="#000001"/>
<path d="M9.14 19.8101H7.62V21.3301H9.14V19.8101Z" fill="#000001"/>
<path d="M9.14 13.71H7.62V15.24H9.14V13.71Z" fill="#000001"/>
<path d="M7.62 21.3301H6.09V22.8601H7.62V21.3301Z" fill="#000001"/>
<path d="M7.62 12.1899H6.09V13.7099H7.62V12.1899Z" fill="#000001"/>
<path d="M6.09 22.8601H4.57V24.3801H6.09V22.8601Z" fill="#000001"/>
<path d="M6.09 10.6702H4.57V12.1902H6.09V10.6702Z" fill="#000001"/>
<path d="M28.95 3.05005H3.05V4.57005H28.95V3.05005Z" fill="#000001"/>
<path d="M4.57 7.62012H3.05V10.6701H4.57V7.62012Z" fill="#000001"/>
<path d="M3.05 25.9001H1.52V27.4301H3.05V25.9001Z" fill="#000001"/>
<path d="M3.05 4.57007H1.52V6.10007H3.05V4.57007Z" fill="#000001"/>
<path d="M1.52 6.1001H0V25.9001H1.52V6.1001Z" fill="#000001"/>
</svg>
